<svg width="32" height="32" viewBox="0 0 32 32" fill="none" xmlns="http://www.w3.org/2000/svg">
<g clip-path="url(#clip0_887_5)">
<path d="M16.422 4.09401C16.2898 4.03249 16.1458 4.00061 16 4.00061C15.8542 4.00061 15.7102 4.03249 15.578 4.09401L0.578022 11.094C0.401386 11.1765 0.252698 11.3087 0.150244 11.4746C0.0477893 11.6404 -0.00396424 11.8326 0.00134811 12.0274C0.00666045 12.2223 0.068807 12.4113 0.180145 12.5713C0.291482 12.7313 0.447157 12.8553 0.628022 12.928L15.628 18.928C15.8668 19.0237 16.1333 19.0237 16.372 18.928L28 14.28V26C27.4696 26 26.9609 26.2107 26.5858 26.5858C26.2107 26.9609 26 27.4696 26 28V32H32V28C32 27.4696 31.7893 26.9609 31.4142 26.5858C31.0392 26.2107 30.5305 26 30 26V13.478L31.372 12.928C31.5529 12.8553 31.7086 12.7313 31.8199 12.5713C31.9312 12.4113 31.9934 12.2223 31.9987 12.0274C32.004 11.8326 31.9523 11.6404 31.8498 11.4746C31.7473 11.3087 31.5987 11.1765 31.422 11.094L16.422 4.09401Z" fill="#4D30FF"/>
<path d="M8.35246 18.064C8.2237 18.0155 8.0863 17.9941 7.94888 18.0011C7.81146 18.0081 7.67696 18.0435 7.55381 18.1048C7.43066 18.1662 7.32151 18.2524 7.23318 18.3579C7.14485 18.4634 7.07924 18.586 7.04046 18.718L6.04046 22.118C5.97042 22.3567 5.99185 22.6129 6.10058 22.8367C6.2093 23.0604 6.39751 23.2356 6.62846 23.328L15.6285 26.928C15.8672 27.0237 16.1337 27.0237 16.3725 26.928L25.3725 23.328C25.6034 23.2356 25.7916 23.0604 25.9004 22.8367C26.0091 22.6129 26.0305 22.3567 25.9605 22.118L24.9605 18.718C24.9217 18.586 24.8561 18.4634 24.7677 18.3579C24.6794 18.2524 24.5703 18.1662 24.4471 18.1048C24.324 18.0435 24.1895 18.0081 24.052 18.0011C23.9146 17.9941 23.7772 18.0155 23.6485 18.064L16.0005 20.932L8.35246 18.064Z" fill="#4D30FF"/>
</g>
<defs>
<clipPath id="clip0_887_5">
<rect width="32" height="32" fill="white"/>
</clipPath>
</defs>
</svg>
